<?xml version="1.0" encoding="utf-8"?><svg xmlns="http://www.w3.org/2000/svg" xmlns:xlink="http://www.w3.org/1999/xlink">
<symbol id="icon-image"  fill="currentColor" class="bi bi-image" viewBox="0 0 16 16">
  <path d="M6.002 5.5a1.5 1.5 0 1 1-3 0 1.5 1.5 0 0 1 3 0z"/>
  <path d="M2.002 1a2 2 0 0 0-2 2v10a2 2 0 0 0 2 2h12a2 2 0 0 0 2-2V3a2 2 0 0 0-2-2h-12zm12 1a1 1 0 0 1 1 1v6.5l-3.777-1.947a.5.5 0 0 0-.577.093l-3.71 3.71-2.66-1.772a.5.5 0 0 0-.63.062L1.002 12V3a1 1 0 0 1 1-1h12z"/>
</symbol>
<symbol id="icon-audio"  fill="currentColor" class="bi bi-file-earmark-play" viewBox="0 0 16 16">
  <path d="M6 6.883v4.234a.5.5 0 0 0 .757.429l3.528-2.117a.5.5 0 0 0 0-.858L6.757 6.454a.5.5 0 0 0-.757.43z"/>
  <path d="M14 14V4.5L9.5 0H4a2 2 0 0 0-2 2v12a2 2 0 0 0 2 2h8a2 2 0 0 0 2-2zM9.5 3A1.5 1.5 0 0 0 11 4.5h2V14a1 1 0 0 1-1 1H4a1 1 0 0 1-1-1V2a1 1 0 0 1 1-1h5.5v2z"/>
</symbol>
<symbol id="icon-video"  fill="currentColor" class="bi bi-camera-video" viewBox="0 0 16 16">
  <path fill-rule="evenodd" d="M0 5a2 2 0 0 1 2-2h7.5a2 2 0 0 1 1.983 1.738l3.11-1.382A1 1 0 0 1 16 4.269v7.462a1 1 0 0 1-1.406.913l-3.111-1.382A2 2 0 0 1 9.5 13H2a2 2 0 0 1-2-2V5zm11.5 5.175 3.5 1.556V4.269l-3.5 1.556v4.35zM2 4a1 1 0 0 0-1 1v6a1 1 0 0 0 1 1h7.5a1 1 0 0 0 1-1V5a1 1 0 0 0-1-1H2z"/>
</symbol>
<symbol id="icon-pdf"  fill="currentColor" class="bi bi-file-earmark-text" viewBox="0 0 16 16">
  <path d="M5.5 7a.5.5 0 0 0 0 1h5a.5.5 0 0 0 0-1h-5zM5 9.5a.5.5 0 0 1 .5-.5h5a.5.5 0 0 1 0 1h-5a.5.5 0 0 1-.5-.5zm0 2a.5.5 0 0 1 .5-.5h2a.5.5 0 0 1 0 1h-2a.5.5 0 0 1-.5-.5z"/>
  <path d="M9.5 0H4a2 2 0 0 0-2 2v12a2 2 0 0 0 2 2h8a2 2 0 0 0 2-2V4.5L9.5 0zm0 1v2A1.5 1.5 0 0 0 11 4.5h2V14a1 1 0 0 1-1 1H4a1 1 0 0 1-1-1V2a1 1 0 0 1 1-1h5.5z"/>
</symbol>
<symbol id="icon-default"  fill="currentColor" class="bi bi-file-earmark" viewBox="0 0 16 16">
  <path d="M14 4.5V14a2 2 0 0 1-2 2H4a2 2 0 0 1-2-2V2a2 2 0 0 1 2-2h5.5L14 4.5zm-3 0A1.5 1.5 0 0 1 9.5 3V1H4a1 1 0 0 0-1 1v12a1 1 0 0 0 1 1h8a1 1 0 0 0 1-1V4.5h-2z"/>
</symbol>
<symbol id="icon-back-to-top"  fill="currentColor" class="bi bi-arrow-up-square" viewBox="0 0 16 16">
  <path fill-rule="evenodd" d="M15 2a1 1 0 0 0-1-1H2a1 1 0 0 0-1 1v12a1 1 0 0 0 1 1h12a1 1 0 0 0 1-1V2zM0 2a2 2 0 0 1 2-2h12a2 2 0 0 1 2 2v12a2 2 0 0 1-2 2H2a2 2 0 0 1-2-2V2zm8.5 9.5a.5.5 0 0 1-1 0V5.707L5.354 7.854a.5.5 0 1 1-.708-.708l3-3a.5.5 0 0 1 .708 0l3 3a.5.5 0 0 1-.708.708L8.5 5.707V11.5z"/>
</symbol></svg>
